PathFileType	4	(X/Y/Z)	Patient4_TMGait_0pt4_02_right_39.trc.trc
DataRate	CameraRate	NumFrames	NumMarkers	Units	OrigDataRate	OrigDataStartFrame	OrigNumFrames
76.086956521739	76.086956521739	6	33	mm	76.086956521739	106	       141
Frame#	Time	Sacral			L.Shoulder			Chest			R.Shoulder			Neck			R.ASIS			L.ASIS			R.Thigh.Superior			R.Thigh.Lateral			R.Thigh.Inferior			R.Patella			L.Thigh.Superior			L.Thigh.Lateral			L.Thigh.Inferior			L.Patella			L.Shank.Superior			L.Shank.Lateral			L.Shank.Inferior			R.Shank.Superior			R.Shank.Lateral			R.Shank.Inferior			R.Heel			R.Midfoot.Superior			R.Midfoot.Lateral			R.Toe			L.Heel			L.Midfoot.Lateral			L.Midfoot.Superior			L.Toe			L.Elbow			L.Wrist			R.Elbow			R.Wrist			
		X1	Y1	Z1	X2	Y2	Z2	X3	Y3	Z3	X4	Y4	Z4	X5	Y5	Z5	X6	Y6	Z6	X7	Y7	Z7	X8	Y8	Z8	X9	Y9	Z9	X10	Y10	Z10	X11	Y11	Z11	X12	Y12	Z12	X13	Y13	Z13	X14	Y14	Z14	X15	Y15	Z15	X16	Y16	Z16	X17	Y17	Z17	X18	Y18	Z18	X19	Y19	Z19	X20	Y20	Z20	X21	Y21	Z21	X22	Y22	Z22	X23	Y23	Z23	X24	Y24	Z24	X25	Y25	Z25	X26	Y26	Z26	X27	Y27	Z27	X28	Y28	Z28	X29	Y29	Z29	X30	Y30	Z30	X31	Y31	Z31	X32	Y32	Z32	X33	Y33	Z33	

106	52.830000000000	820.576146402511	1008.721440954870	449.471691445682	1005.580740695177	1436.949009578995	259.601907180767	1103.687600621424	1369.552956558065	424.121005188264	1016.588838551900	1443.455281840545	596.148807951586	984.148608373262	1500.322926309920	417.278009242635	1051.378554738991	951.615146500609	566.575710290742	1035.790638034827	967.423083365816	292.010116967955	1136.378320950074	781.942892742187	535.772467808834	1100.460765486103	662.264077896812	617.140739235924	1186.686646729585	621.529682488928	535.917914310360	1211.349348658870	517.041677367680	561.277007605909	1075.265842965258	749.127053874356	321.044984687803	977.773947103049	638.964844270354	260.070732926891	1055.691400275056	556.353367884240	322.321530296812	1050.822942520560	487.997000127774	332.034422296618	1023.570787297334	417.567632094977	323.259736793498	931.204135807087	305.506327697574	273.400123755372	980.011806912428	192.630275051859	343.222538657123	1151.676074954044	434.107635679246	577.336298584104	1047.888377180993	373.021731790662	650.033343909596	1054.628369031339	260.864245923196	606.487678524243	872.829090266851	153.549486565492	598.617568730782	1052.328591291080	139.024101412613	628.711589988424	948.917967585456	113.441591102107	669.704138815108	1143.051689067211	45.924339887315	653.036682400706	850.297821877783	38.867596384201	388.837952716329	920.756914344987	35.412118023685	304.981838067561	1005.420184446036	95.874357884110	329.476050813077	1132.785126874789	42.436939658432	294.601584472802	991.452916268913	1096.447629886153	114.929474382731	1124.198995315674	868.234612081700	112.272645054621	970.481881949998	1099.623701763297	722.652776540150	1052.251919587791	851.023292859529	729.210809797567	
107	52.843142857143	819.468186266905	1008.931224608848	448.636816578062	1007.152351931306	1436.971502483404	259.516021225514	1103.599189791012	1369.173522901014	424.849469443398	1015.119141705925	1443.267059863263	596.130662271287	984.477847013323	1500.280716271037	417.213691889376	1049.729981362169	952.124575947337	567.090868148292	1035.397105323156	966.992181804472	292.377868513499	1134.781206975209	782.589487880439	536.173170279022	1099.750463509789	663.454290669648	618.152925324941	1184.809754120665	622.367305237533	535.904339924156	1211.235574999835	519.866979075360	561.449421805030	1073.549892463969	748.384988200287	322.181960274915	975.759886651836	638.711674037519	260.207839471437	1052.818383752406	555.696933434005	322.973275183186	1047.402624904585	487.344416544725	332.601015566079	1019.953080042347	417.023624940170	323.719528654731	927.242910817293	305.364029119803	273.651146888120	975.299059935860	192.299721001194	343.542163601722	1155.402688920904	435.706792880953	578.732257773968	1055.894310052615	369.516264236318	652.691501830462	1068.356608799896	257.671753391796	609.297062344696	892.844065282664	140.315652924377	602.914616074646	1072.897427013457	135.821715684747	632.071087743612	971.314445132816	105.105895187536	673.981203333035	1168.637426089753	48.369717844235	656.835344781690	844.998553988750	38.782810957491	388.859666732728	915.449130648849	35.390451096407	304.998300190301	1000.129004413741	95.835153791236	329.601515775162	1127.488620323906	42.411881761089	294.623194050419	994.863543228582	1096.898967007157	113.949263900771	1130.438323975625	870.293136406051	113.676723750865	962.962445043927	1101.075474406217	723.775629219231	1039.358323194384	851.108969832691	736.605805561149	
108	52.856285714286	818.398392052520	1009.094373364855	447.964689597259	1008.634968655165	1436.874557354467	259.633687694111	1103.555032435665	1368.695886386374	425.689985130664	1013.842784932998	1442.981550343504	596.289398058727	984.838813893105	1500.134995865250	417.347511608629	1048.124200093509	952.426385201167	567.740159138497	1035.036417136169	966.475782526813	292.884853870816	1132.794846339553	782.620894531691	536.773293017601	1098.353364726821	664.250660447969	619.407687067413	1182.128189587291	622.585419593002	536.125413413372	1210.290116868232	522.266067498102	561.796698077825	1071.943353740559	747.616994827512	323.398222889357	973.933462209484	638.396059278229	260.427906288886	1050.163831351601	555.005392330593	323.697775996274	1044.225167039169	486.637748252719	333.224722763791	1016.526344190081	416.408679852853	324.236782111813	923.419923369277	305.203683917337	273.942988483683	970.642293757831	191.921012523600	343.887897849436	1158.457643409141	437.081542190732	580.284364680529	1063.671287772955	365.843110705715	655.565585734187	1081.931968619158	254.645352175381	612.138619652484	913.423352987188	127.244944087902	607.234194159811	1093.532284691587	133.156570339290	635.348684166837	994.131249395684	97.208101663873	678.193043154856	1194.167526031386	51.763933366756	660.456277711295	839.707587942316	38.699728548697	388.880537288695	910.145755693412	35.369429444979	305.017634259621	994.842523476760	95.787499585156	329.741765011868	1122.195413397443	42.378323370265	294.650224636770	998.081221033376	1097.219888555306	113.235559669828	1136.692431472143	872.438488528858	115.374603958184	956.040370768950	1102.379920824632	724.846645794325	1027.167611512073	851.363977791434	743.196901891160	
109	52.869428571429	817.386482635076	1009.221984194902	447.450377199803	1010.012745635891	1436.675663931316	259.952732223760	1103.553552888959	1368.146170425473	426.640349301852	1012.769242735196	1442.628384237570	596.626532972400	985.223303019669	1499.908740026193	417.670477163392	1046.566962713339	952.536959211606	568.531601641877	1034.726111497016	965.897966426604	293.539757231609	1130.458972597363	782.100791185594	537.586189847056	1096.334148642276	664.689986894037	620.930420011662	1178.786594895812	622.272720964158	536.661094122556	1208.632865550912	524.270890402839	562.398030732949	1070.440400741575	746.821160240720	324.673992502382	972.269778444073	638.030350805052	260.744700790552	1047.692843305534	554.280241236589	324.502051867393	1041.254192634479	485.888324255789	333.917022770954	1013.259374992805	415.739875449771	324.817643471288	919.713576321725	305.037729081308	274.276354674675	966.029446875255	191.507101777760	344.258164313980	1160.876664270274	438.278271885814	581.977363294091	1071.154470883042	362.144307566039	658.569106079786	1095.146300824310	251.941763381742	614.878004865843	934.219192685644	114.742936848893	611.360337257014	1113.864580753094	131.174677920167	638.332985276707	1016.975120486820	89.976016439991	682.084239433528	1219.149308794527	56.111369987696	663.579005683800	834.422989142455	38.626640450909	388.897053227546	904.847128275648	35.352742507438	305.037910883909	989.562308069468	95.733586985324	329.891611919164	1116.905386558230	42.336483337429	294.680897850847	1001.090753649414	1097.415095471127	112.803548220670	1142.928846221476	874.683026401192	117.367905285665	949.749304589055	1103.539318791486	725.874264865824	1015.742474919396	851.716195373928	749.016399678882	
110	52.882571428571	816.457686037908	1009.318937110829	447.096089786653	1011.277686690292	1436.396133296268	260.469379233433	1103.592461608907	1367.550467124953	427.700556140327	1011.899798845993	1442.235820286375	597.142016178134	985.622890894101	1499.625185803986	418.174771839515	1045.067810417207	952.479054251618	569.472875728541	1034.483625469691	965.283347615947	294.350757813332	1127.841709417434	781.121832582960	538.627687235863	1093.793794269921	664.814286747267	622.736260850711	1174.968859695713	621.532729091028	537.578703201626	1206.397867495088	525.916255768053	563.323029178446	1069.026337978797	745.997200169147	325.999742622653	970.733376542962	637.630371872053	261.171933027666	1045.357576031401	553.525115190813	325.392347035431	1038.437997811074	485.110433556901	334.686398664056	1010.109428791322	415.037739601896	325.465861550562	916.092822628665	304.879516101568	274.651072919283	961.445354297896	191.073875231401	344.649982648665	1162.702058873565	439.329216224706	583.789553638241	1078.247957938367	358.532992943189	661.599070207760	1107.770458167035	249.660376965697	617.388140184310	954.807739750512	103.146832374442	615.076140548924	1133.496236552943	129.927809434116	640.835246910970	1039.392328121186	83.545402806287	685.413984052675	1243.078805164219	61.289990242748	665.926044335135	829.142966119579	38.571957880966	388.907141740413	899.553190316844	35.344213391767	305.057294037592	984.290071391204	95.676652481475	330.045491498438	1111.617853869667	42.288088937838	294.713660038382	1003.878904294838	1097.493533416201	112.667085590917	1149.112748670820	877.037981417014	119.663115843483	944.110038633470	1104.561734747683	726.873586823863	1005.142204838014	852.106572212680	754.111576942763	
111	52.895714285714	815.641584790237	1009.382083852058	446.912970611815	1012.427528396014	1436.057702086344	261.178899728427	1103.667779350212	1366.932611044385	428.872836542171	1011.225718296425	1441.827543349612	597.834853755596	986.027767269701	1499.304734648390	418.854034906003	1043.643698451687	952.278710571382	570.571815518062	1034.326421958367	964.654186325165	295.325303964516	1125.040511668914	779.797435433969	539.914570640013	1090.861695066419	664.661280699742	624.820058312343	1170.885005997749	620.471686718369	538.921369486613	1203.724946709350	527.231310955740	564.616851118119	1067.683345852925	745.146882965258	327.377853569415	969.282803940400	637.214091232585	261.721360381046	1043.102997845325	552.745212987846	326.373276223466	1035.715188047659	484.319653769318	335.537451635753	1007.026851368514	414.323975627646	326.182098751539	912.520090330050	304.742091678567	275.066030284468	956.873307183149	190.638223319413	345.058880110720	1163.977658690829	440.243436158297	585.690570472548	1084.820182649567	355.085534512983	664.536515335007	1119.559549297037	247.834423309265	619.560254813301	974.703748894876	92.706957286578	618.174655834251	1152.011161101162	129.369173396797	642.712773227194	1060.877662671715	77.956956454234	687.977559536925	1265.453932292983	67.053094802782	667.307440767320	823.866282545194	38.542901967999	388.910369715406	894.263603892396	35.347286489103	305.074256221428	979.027270943456	95.620749171018	330.197894358088	1106.331536778612	42.236089926114	294.747316520935	1006.435230381496	1097.466106262728	112.837269264494	1155.207328946660	879.510484753615	122.268605258208	939.128491109511	1105.455402032390	727.863049042481	995.424273254905	852.487497824391	758.536546095859	
